<mxfile host="Electron" modified="2023-09-13T16:46:24.450Z" agent="Mozilla/5.0 (Windows NT 10.0; Win64; x64) AppleWebKit/537.36 (KHTML, like Gecko) draw.io/21.6.8 Chrome/114.0.5735.289 Electron/25.5.0 Safari/537.36" etag="YZMk7XMX9uAW_zwVnDh7" version="21.6.8" type="device">
  <diagram name="第 1 页" id="SaR8M9Q-gV_pKNAxYY1i">
    <mxGraphModel dx="1221" dy="823" grid="1" gridSize="10" guides="1" tooltips="1" connect="1" arrows="1" fold="1" page="1" pageScale="1" pageWidth="827" pageHeight="1169" math="0" shadow="0">
      <root>
        <mxCell id="0" />
        <mxCell id="1" parent="0" />
        <mxCell id="JDQDigzeUAKK5NOirLmH-260" value="" style="group;fillColor=#D7F0D5;strokeColor=#82b366;opacity=40;container=0;" vertex="1" connectable="0" parent="1">
          <mxGeometry x="560.0000000000001" y="580" width="360" height="40" as="geometry" />
        </mxCell>
        <mxCell id="JDQDigzeUAKK5NOirLmH-270" value="" style="group;fillColor=#D7F0D5;strokeColor=#82b366;opacity=60;container=0;" vertex="1" connectable="0" parent="1">
          <mxGeometry x="560.0000000000001" y="620" width="360" height="40" as="geometry" />
        </mxCell>
        <mxCell id="JDQDigzeUAKK5NOirLmH-280" value="" style="group;fillColor=#D7F0D5;strokeColor=#82b366;opacity=60;container=0;" vertex="1" connectable="0" parent="1">
          <mxGeometry x="560.0000000000001" y="660" width="360" height="40" as="geometry" />
        </mxCell>
        <mxCell id="JDQDigzeUAKK5NOirLmH-290" value="" style="group;fillColor=#D7F0D5;strokeColor=#82b366;opacity=60;container=0;" vertex="1" connectable="0" parent="1">
          <mxGeometry x="560.0000000000001" y="700" width="360" height="40" as="geometry" />
        </mxCell>
        <mxCell id="JDQDigzeUAKK5NOirLmH-261" value="" style="whiteSpace=wrap;html=1;aspect=fixed;fillColor=#D7F0D5;strokeColor=#82b366;direction=east;flipH=1;flipV=1;rotation=-90;container=0;opacity=40;" vertex="1" parent="1">
          <mxGeometry x="560.0000000000001" y="580" width="40" height="40" as="geometry" />
        </mxCell>
        <mxCell id="JDQDigzeUAKK5NOirLmH-262" value="" style="whiteSpace=wrap;html=1;aspect=fixed;fillColor=#D7F0D5;strokeColor=#82b366;direction=east;flipH=1;flipV=1;rotation=-90;container=0;opacity=40;" vertex="1" parent="1">
          <mxGeometry x="600.0000000000001" y="580" width="40" height="40" as="geometry" />
        </mxCell>
        <mxCell id="JDQDigzeUAKK5NOirLmH-263" value="" style="whiteSpace=wrap;html=1;aspect=fixed;fillColor=#D7F0D5;strokeColor=#82b366;direction=east;flipH=1;flipV=1;rotation=-90;container=0;opacity=40;" vertex="1" parent="1">
          <mxGeometry x="640.0000000000001" y="580" width="40" height="40" as="geometry" />
        </mxCell>
        <mxCell id="JDQDigzeUAKK5NOirLmH-264" value="" style="whiteSpace=wrap;html=1;aspect=fixed;fillColor=#D7F0D5;strokeColor=#82b366;direction=east;flipH=1;flipV=1;rotation=-90;container=0;opacity=40;" vertex="1" parent="1">
          <mxGeometry x="680.0000000000001" y="580" width="40" height="40" as="geometry" />
        </mxCell>
        <mxCell id="JDQDigzeUAKK5NOirLmH-265" value="" style="whiteSpace=wrap;html=1;aspect=fixed;fillColor=#D7F0D5;strokeColor=#82b366;direction=east;flipH=1;flipV=1;rotation=-90;container=0;opacity=40;" vertex="1" parent="1">
          <mxGeometry x="720.0000000000001" y="580" width="40" height="40" as="geometry" />
        </mxCell>
        <mxCell id="JDQDigzeUAKK5NOirLmH-266" value="" style="whiteSpace=wrap;html=1;aspect=fixed;fillColor=#D7F0D5;strokeColor=#82b366;direction=east;flipH=1;flipV=1;rotation=-90;container=0;opacity=40;" vertex="1" parent="1">
          <mxGeometry x="760.0000000000001" y="580" width="40" height="40" as="geometry" />
        </mxCell>
        <mxCell id="JDQDigzeUAKK5NOirLmH-267" value="" style="whiteSpace=wrap;html=1;aspect=fixed;fillColor=#D7F0D5;strokeColor=#82b366;direction=east;flipH=1;flipV=1;rotation=-90;container=0;opacity=40;" vertex="1" parent="1">
          <mxGeometry x="800.0000000000001" y="580" width="40" height="40" as="geometry" />
        </mxCell>
        <mxCell id="JDQDigzeUAKK5NOirLmH-268" value="" style="whiteSpace=wrap;html=1;aspect=fixed;fillColor=#D7F0D5;strokeColor=#82b366;direction=east;flipH=1;flipV=1;rotation=-90;container=0;opacity=40;" vertex="1" parent="1">
          <mxGeometry x="840.0000000000001" y="580" width="40" height="40" as="geometry" />
        </mxCell>
        <mxCell id="JDQDigzeUAKK5NOirLmH-269" value="" style="whiteSpace=wrap;html=1;aspect=fixed;fillColor=#D7F0D5;strokeColor=#82b366;direction=east;flipH=1;flipV=1;rotation=-90;container=0;opacity=40;" vertex="1" parent="1">
          <mxGeometry x="880.0000000000001" y="580" width="40" height="40" as="geometry" />
        </mxCell>
        <mxCell id="JDQDigzeUAKK5NOirLmH-271" value="" style="whiteSpace=wrap;html=1;aspect=fixed;fillColor=#D7F0D5;strokeColor=#82b366;direction=east;flipH=1;flipV=1;rotation=-90;container=0;opacity=60;" vertex="1" parent="1">
          <mxGeometry x="560.0000000000001" y="620" width="40" height="40" as="geometry" />
        </mxCell>
        <mxCell id="JDQDigzeUAKK5NOirLmH-272" value="" style="whiteSpace=wrap;html=1;aspect=fixed;fillColor=#D7F0D5;strokeColor=#82b366;direction=east;flipH=1;flipV=1;rotation=-90;container=0;opacity=60;" vertex="1" parent="1">
          <mxGeometry x="600.0000000000001" y="620" width="40" height="40" as="geometry" />
        </mxCell>
        <mxCell id="JDQDigzeUAKK5NOirLmH-273" value="" style="whiteSpace=wrap;html=1;aspect=fixed;fillColor=#D7F0D5;strokeColor=#82b366;direction=east;flipH=1;flipV=1;rotation=-90;container=0;opacity=60;" vertex="1" parent="1">
          <mxGeometry x="640.0000000000001" y="620" width="40" height="40" as="geometry" />
        </mxCell>
        <mxCell id="JDQDigzeUAKK5NOirLmH-274" value="" style="whiteSpace=wrap;html=1;aspect=fixed;fillColor=#D7F0D5;strokeColor=#82b366;direction=east;flipH=1;flipV=1;rotation=-90;container=0;opacity=60;" vertex="1" parent="1">
          <mxGeometry x="680.0000000000001" y="620" width="40" height="40" as="geometry" />
        </mxCell>
        <mxCell id="JDQDigzeUAKK5NOirLmH-275" value="" style="whiteSpace=wrap;html=1;aspect=fixed;fillColor=#D7F0D5;strokeColor=#82b366;direction=east;flipH=1;flipV=1;rotation=-90;container=0;opacity=60;" vertex="1" parent="1">
          <mxGeometry x="720.0000000000001" y="620" width="40" height="40" as="geometry" />
        </mxCell>
        <mxCell id="JDQDigzeUAKK5NOirLmH-276" value="" style="whiteSpace=wrap;html=1;aspect=fixed;fillColor=#D7F0D5;strokeColor=#82b366;direction=east;flipH=1;flipV=1;rotation=-90;container=0;opacity=60;" vertex="1" parent="1">
          <mxGeometry x="760.0000000000001" y="620" width="40" height="40" as="geometry" />
        </mxCell>
        <mxCell id="JDQDigzeUAKK5NOirLmH-277" value="" style="whiteSpace=wrap;html=1;aspect=fixed;fillColor=#D7F0D5;strokeColor=#82b366;direction=east;flipH=1;flipV=1;rotation=-90;container=0;opacity=60;" vertex="1" parent="1">
          <mxGeometry x="800.0000000000001" y="620" width="40" height="40" as="geometry" />
        </mxCell>
        <mxCell id="JDQDigzeUAKK5NOirLmH-278" value="" style="whiteSpace=wrap;html=1;aspect=fixed;fillColor=#D7F0D5;strokeColor=#82b366;direction=east;flipH=1;flipV=1;rotation=-90;container=0;opacity=60;" vertex="1" parent="1">
          <mxGeometry x="840.0000000000001" y="620" width="40" height="40" as="geometry" />
        </mxCell>
        <mxCell id="JDQDigzeUAKK5NOirLmH-279" value="" style="whiteSpace=wrap;html=1;aspect=fixed;fillColor=#D7F0D5;strokeColor=#82b366;direction=east;flipH=1;flipV=1;rotation=-90;container=0;opacity=40;" vertex="1" parent="1">
          <mxGeometry x="880.0000000000001" y="620" width="40" height="40" as="geometry" />
        </mxCell>
        <mxCell id="JDQDigzeUAKK5NOirLmH-281" value="" style="whiteSpace=wrap;html=1;aspect=fixed;fillColor=#D7F0D5;strokeColor=#82b366;direction=east;flipH=1;flipV=1;rotation=-90;container=0;opacity=60;" vertex="1" parent="1">
          <mxGeometry x="560.0000000000001" y="660" width="40" height="40" as="geometry" />
        </mxCell>
        <mxCell id="JDQDigzeUAKK5NOirLmH-282" value="" style="whiteSpace=wrap;html=1;aspect=fixed;fillColor=#D7F0D5;strokeColor=#82b366;direction=east;flipH=1;flipV=1;rotation=-90;container=0;opacity=60;" vertex="1" parent="1">
          <mxGeometry x="600.0000000000001" y="660" width="40" height="40" as="geometry" />
        </mxCell>
        <mxCell id="JDQDigzeUAKK5NOirLmH-283" value="" style="whiteSpace=wrap;html=1;aspect=fixed;fillColor=#D7F0D5;strokeColor=#82b366;direction=east;flipH=1;flipV=1;rotation=-90;container=0;opacity=60;" vertex="1" parent="1">
          <mxGeometry x="640.0000000000001" y="660" width="40" height="40" as="geometry" />
        </mxCell>
        <mxCell id="JDQDigzeUAKK5NOirLmH-284" value="" style="whiteSpace=wrap;html=1;aspect=fixed;fillColor=#D7F0D5;strokeColor=#82b366;direction=east;flipH=1;flipV=1;rotation=-90;container=0;opacity=60;" vertex="1" parent="1">
          <mxGeometry x="680.0000000000001" y="660" width="40" height="40" as="geometry" />
        </mxCell>
        <mxCell id="JDQDigzeUAKK5NOirLmH-285" value="" style="whiteSpace=wrap;html=1;aspect=fixed;fillColor=#D7F0D5;strokeColor=#82b366;direction=east;flipH=1;flipV=1;rotation=-90;container=0;opacity=60;" vertex="1" parent="1">
          <mxGeometry x="720.0000000000001" y="660" width="40" height="40" as="geometry" />
        </mxCell>
        <mxCell id="JDQDigzeUAKK5NOirLmH-286" value="" style="whiteSpace=wrap;html=1;aspect=fixed;fillColor=#D7F0D5;strokeColor=#82b366;direction=east;flipH=1;flipV=1;rotation=-90;container=0;opacity=60;" vertex="1" parent="1">
          <mxGeometry x="760.0000000000001" y="660" width="40" height="40" as="geometry" />
        </mxCell>
        <mxCell id="JDQDigzeUAKK5NOirLmH-287" value="" style="whiteSpace=wrap;html=1;aspect=fixed;fillColor=#D7F0D5;strokeColor=#82b366;direction=east;flipH=1;flipV=1;rotation=-90;container=0;opacity=60;" vertex="1" parent="1">
          <mxGeometry x="800.0000000000001" y="660" width="40" height="40" as="geometry" />
        </mxCell>
        <mxCell id="JDQDigzeUAKK5NOirLmH-288" value="" style="whiteSpace=wrap;html=1;aspect=fixed;fillColor=#D7F0D5;strokeColor=#82b366;direction=east;flipH=1;flipV=1;rotation=-90;container=0;opacity=60;" vertex="1" parent="1">
          <mxGeometry x="840.0000000000001" y="660" width="40" height="40" as="geometry" />
        </mxCell>
        <mxCell id="JDQDigzeUAKK5NOirLmH-289" value="" style="whiteSpace=wrap;html=1;aspect=fixed;fillColor=#D7F0D5;strokeColor=#82b366;direction=east;flipH=1;flipV=1;rotation=-90;container=0;opacity=40;" vertex="1" parent="1">
          <mxGeometry x="880.0000000000001" y="660" width="40" height="40" as="geometry" />
        </mxCell>
        <mxCell id="JDQDigzeUAKK5NOirLmH-291" value="" style="whiteSpace=wrap;html=1;aspect=fixed;fillColor=#D7F0D5;strokeColor=#82b366;direction=east;flipH=1;flipV=1;rotation=-90;container=0;opacity=60;" vertex="1" parent="1">
          <mxGeometry x="560.0000000000001" y="700" width="40" height="40" as="geometry" />
        </mxCell>
        <mxCell id="JDQDigzeUAKK5NOirLmH-292" value="" style="whiteSpace=wrap;html=1;aspect=fixed;fillColor=#D7F0D5;strokeColor=#82b366;direction=east;flipH=1;flipV=1;rotation=-90;container=0;opacity=60;" vertex="1" parent="1">
          <mxGeometry x="600.0000000000001" y="700" width="40" height="40" as="geometry" />
        </mxCell>
        <mxCell id="JDQDigzeUAKK5NOirLmH-293" value="" style="whiteSpace=wrap;html=1;aspect=fixed;fillColor=#D7F0D5;strokeColor=#82b366;direction=east;flipH=1;flipV=1;rotation=-90;container=0;opacity=60;" vertex="1" parent="1">
          <mxGeometry x="640.0000000000001" y="700" width="40" height="40" as="geometry" />
        </mxCell>
        <mxCell id="JDQDigzeUAKK5NOirLmH-294" value="" style="whiteSpace=wrap;html=1;aspect=fixed;fillColor=#D7F0D5;strokeColor=#82b366;direction=east;flipH=1;flipV=1;rotation=-90;container=0;opacity=60;" vertex="1" parent="1">
          <mxGeometry x="680.0000000000001" y="700" width="40" height="40" as="geometry" />
        </mxCell>
        <mxCell id="JDQDigzeUAKK5NOirLmH-299" value="" style="whiteSpace=wrap;html=1;aspect=fixed;fillColor=#D7F0D5;strokeColor=#82b366;direction=east;flipH=1;flipV=1;rotation=-90;container=0;opacity=40;" vertex="1" parent="1">
          <mxGeometry x="880.0000000000001" y="700" width="40" height="40" as="geometry" />
        </mxCell>
        <mxCell id="JDQDigzeUAKK5NOirLmH-295" value="" style="whiteSpace=wrap;html=1;aspect=fixed;fillColor=#D7F0D5;strokeColor=#82b366;direction=east;flipH=1;flipV=1;rotation=-90;container=0;opacity=60;" vertex="1" parent="1">
          <mxGeometry x="720.0000000000001" y="700" width="40" height="40" as="geometry" />
        </mxCell>
        <mxCell id="JDQDigzeUAKK5NOirLmH-296" value="" style="whiteSpace=wrap;html=1;aspect=fixed;fillColor=#D7F0D5;strokeColor=#82b366;direction=east;flipH=1;flipV=1;rotation=-90;container=0;opacity=60;" vertex="1" parent="1">
          <mxGeometry x="760.0000000000001" y="700" width="40" height="40" as="geometry" />
        </mxCell>
        <mxCell id="JDQDigzeUAKK5NOirLmH-297" value="" style="whiteSpace=wrap;html=1;aspect=fixed;fillColor=#D7F0D5;strokeColor=#82b366;direction=east;flipH=1;flipV=1;rotation=-90;container=0;opacity=60;" vertex="1" parent="1">
          <mxGeometry x="800.0000000000001" y="700" width="40" height="40" as="geometry" />
        </mxCell>
        <mxCell id="JDQDigzeUAKK5NOirLmH-298" value="" style="whiteSpace=wrap;html=1;aspect=fixed;fillColor=#D7F0D5;strokeColor=#82b366;direction=east;flipH=1;flipV=1;rotation=-90;container=0;opacity=60;" vertex="1" parent="1">
          <mxGeometry x="840.0000000000001" y="700" width="40" height="40" as="geometry" />
        </mxCell>
        <mxCell id="JDQDigzeUAKK5NOirLmH-157" value="" style="whiteSpace=wrap;html=1;aspect=fixed;fillColor=#ffe6cc;strokeColor=#d79b00;opacity=60;" vertex="1" parent="1">
          <mxGeometry x="100" y="620" width="40" height="40" as="geometry" />
        </mxCell>
        <mxCell id="JDQDigzeUAKK5NOirLmH-158" value="" style="whiteSpace=wrap;html=1;aspect=fixed;fillColor=#ffe6cc;strokeColor=#d79b00;opacity=60;" vertex="1" parent="1">
          <mxGeometry x="100" y="660" width="40" height="40" as="geometry" />
        </mxCell>
        <mxCell id="JDQDigzeUAKK5NOirLmH-159" value="" style="whiteSpace=wrap;html=1;aspect=fixed;fillColor=#ffe6cc;strokeColor=#d79b00;opacity=60;" vertex="1" parent="1">
          <mxGeometry x="140" y="620" width="40" height="40" as="geometry" />
        </mxCell>
        <mxCell id="JDQDigzeUAKK5NOirLmH-160" value="" style="whiteSpace=wrap;html=1;aspect=fixed;fillColor=#ffe6cc;strokeColor=#d79b00;opacity=60;" vertex="1" parent="1">
          <mxGeometry x="140" y="660" width="40" height="40" as="geometry" />
        </mxCell>
        <mxCell id="JDQDigzeUAKK5NOirLmH-161" value="" style="whiteSpace=wrap;html=1;aspect=fixed;fillColor=#ffe6cc;strokeColor=#d79b00;opacity=60;" vertex="1" parent="1">
          <mxGeometry x="180" y="620" width="40" height="40" as="geometry" />
        </mxCell>
        <mxCell id="JDQDigzeUAKK5NOirLmH-162" value="" style="whiteSpace=wrap;html=1;aspect=fixed;fillColor=#ffe6cc;strokeColor=#d79b00;opacity=60;" vertex="1" parent="1">
          <mxGeometry x="180" y="660" width="40" height="40" as="geometry" />
        </mxCell>
        <mxCell id="JDQDigzeUAKK5NOirLmH-147" value="" style="whiteSpace=wrap;html=1;aspect=fixed;fillColor=#ffe6cc;strokeColor=#d79b00;opacity=60;" vertex="1" parent="1">
          <mxGeometry x="60" y="280" width="40" height="40" as="geometry" />
        </mxCell>
        <mxCell id="JDQDigzeUAKK5NOirLmH-148" value="" style="whiteSpace=wrap;html=1;aspect=fixed;fillColor=#ffe6cc;strokeColor=#d79b00;opacity=60;" vertex="1" parent="1">
          <mxGeometry x="60" y="320" width="40" height="40" as="geometry" />
        </mxCell>
        <mxCell id="JDQDigzeUAKK5NOirLmH-149" value="" style="whiteSpace=wrap;html=1;aspect=fixed;fillColor=#ffe6cc;strokeColor=#d79b00;opacity=60;" vertex="1" parent="1">
          <mxGeometry x="60" y="360" width="40" height="40" as="geometry" />
        </mxCell>
        <mxCell id="JDQDigzeUAKK5NOirLmH-150" value="" style="whiteSpace=wrap;html=1;aspect=fixed;fillColor=#ffe6cc;strokeColor=#d79b00;opacity=60;" vertex="1" parent="1">
          <mxGeometry x="60" y="400" width="40" height="40" as="geometry" />
        </mxCell>
        <mxCell id="JDQDigzeUAKK5NOirLmH-151" value="" style="whiteSpace=wrap;html=1;aspect=fixed;fillColor=#ffe6cc;strokeColor=#d79b00;opacity=60;" vertex="1" parent="1">
          <mxGeometry x="60" y="440" width="40" height="40" as="geometry" />
        </mxCell>
        <mxCell id="JDQDigzeUAKK5NOirLmH-152" value="" style="whiteSpace=wrap;html=1;aspect=fixed;fillColor=#ffe6cc;strokeColor=#d79b00;opacity=60;" vertex="1" parent="1">
          <mxGeometry x="60" y="480" width="40" height="40" as="geometry" />
        </mxCell>
        <mxCell id="JDQDigzeUAKK5NOirLmH-29" value="" style="group" vertex="1" connectable="0" parent="1">
          <mxGeometry x="480.0000000000001" y="280" width="240" height="40" as="geometry" />
        </mxCell>
        <mxCell id="JDQDigzeUAKK5NOirLmH-16" value="" style="whiteSpace=wrap;html=1;aspect=fixed;fillColor=#f8cecc;strokeColor=#b85450;direction=east;flipH=1;flipV=1;rotation=-90;" vertex="1" parent="JDQDigzeUAKK5NOirLmH-29">
          <mxGeometry width="40" height="40" as="geometry" />
        </mxCell>
        <mxCell id="JDQDigzeUAKK5NOirLmH-21" value="" style="whiteSpace=wrap;html=1;aspect=fixed;fillColor=#f8cecc;strokeColor=#b85450;direction=east;flipH=1;flipV=1;rotation=-90;" vertex="1" parent="JDQDigzeUAKK5NOirLmH-29">
          <mxGeometry x="200" width="40" height="40" as="geometry" />
        </mxCell>
        <mxCell id="JDQDigzeUAKK5NOirLmH-18" value="" style="whiteSpace=wrap;html=1;aspect=fixed;fillColor=#f8cecc;strokeColor=#b85450;direction=east;flipH=1;flipV=1;rotation=-90;" vertex="1" parent="JDQDigzeUAKK5NOirLmH-29">
          <mxGeometry x="80" width="40" height="40" as="geometry" />
        </mxCell>
        <mxCell id="JDQDigzeUAKK5NOirLmH-17" value="" style="whiteSpace=wrap;html=1;aspect=fixed;fillColor=#f8cecc;strokeColor=#b85450;direction=east;flipH=1;flipV=1;rotation=-90;" vertex="1" parent="JDQDigzeUAKK5NOirLmH-29">
          <mxGeometry x="40" width="40" height="40" as="geometry" />
        </mxCell>
        <mxCell id="JDQDigzeUAKK5NOirLmH-20" value="" style="whiteSpace=wrap;html=1;aspect=fixed;fillColor=#f8cecc;strokeColor=#b85450;direction=east;flipH=1;flipV=1;rotation=-90;" vertex="1" parent="JDQDigzeUAKK5NOirLmH-29">
          <mxGeometry x="160" width="40" height="40" as="geometry" />
        </mxCell>
        <mxCell id="JDQDigzeUAKK5NOirLmH-19" value="" style="whiteSpace=wrap;html=1;aspect=fixed;fillColor=#f8cecc;strokeColor=#b85450;direction=east;flipH=1;flipV=1;rotation=-90;" vertex="1" parent="JDQDigzeUAKK5NOirLmH-29">
          <mxGeometry x="120" width="40" height="40" as="geometry" />
        </mxCell>
        <mxCell id="JDQDigzeUAKK5NOirLmH-30" value="" style="group" vertex="1" connectable="0" parent="1">
          <mxGeometry x="480.0000000000001" y="320" width="240" height="40" as="geometry" />
        </mxCell>
        <mxCell id="JDQDigzeUAKK5NOirLmH-31" value="" style="whiteSpace=wrap;html=1;aspect=fixed;fillColor=#f8cecc;strokeColor=#b85450;direction=east;flipH=1;flipV=1;rotation=-90;" vertex="1" parent="JDQDigzeUAKK5NOirLmH-30">
          <mxGeometry width="40" height="40" as="geometry" />
        </mxCell>
        <mxCell id="JDQDigzeUAKK5NOirLmH-32" value="" style="whiteSpace=wrap;html=1;aspect=fixed;fillColor=#f8cecc;strokeColor=#b85450;direction=east;flipH=1;flipV=1;rotation=-90;" vertex="1" parent="JDQDigzeUAKK5NOirLmH-30">
          <mxGeometry x="200" width="40" height="40" as="geometry" />
        </mxCell>
        <mxCell id="JDQDigzeUAKK5NOirLmH-33" value="" style="whiteSpace=wrap;html=1;aspect=fixed;fillColor=#f8cecc;strokeColor=#b85450;direction=east;flipH=1;flipV=1;rotation=-90;" vertex="1" parent="JDQDigzeUAKK5NOirLmH-30">
          <mxGeometry x="80" width="40" height="40" as="geometry" />
        </mxCell>
        <mxCell id="JDQDigzeUAKK5NOirLmH-34" value="" style="whiteSpace=wrap;html=1;aspect=fixed;fillColor=#f8cecc;strokeColor=#b85450;direction=east;flipH=1;flipV=1;rotation=-90;" vertex="1" parent="JDQDigzeUAKK5NOirLmH-30">
          <mxGeometry x="40" width="40" height="40" as="geometry" />
        </mxCell>
        <mxCell id="JDQDigzeUAKK5NOirLmH-35" value="" style="whiteSpace=wrap;html=1;aspect=fixed;fillColor=#f8cecc;strokeColor=#b85450;direction=east;flipH=1;flipV=1;rotation=-90;" vertex="1" parent="JDQDigzeUAKK5NOirLmH-30">
          <mxGeometry x="160" width="40" height="40" as="geometry" />
        </mxCell>
        <mxCell id="JDQDigzeUAKK5NOirLmH-36" value="" style="whiteSpace=wrap;html=1;aspect=fixed;fillColor=#f8cecc;strokeColor=#b85450;direction=east;flipH=1;flipV=1;rotation=-90;" vertex="1" parent="JDQDigzeUAKK5NOirLmH-30">
          <mxGeometry x="120" width="40" height="40" as="geometry" />
        </mxCell>
        <mxCell id="JDQDigzeUAKK5NOirLmH-37" value="" style="group" vertex="1" connectable="0" parent="1">
          <mxGeometry x="480.0000000000001" y="360" width="240" height="40" as="geometry" />
        </mxCell>
        <mxCell id="JDQDigzeUAKK5NOirLmH-38" value="" style="whiteSpace=wrap;html=1;aspect=fixed;fillColor=#f8cecc;strokeColor=#b85450;direction=east;flipH=1;flipV=1;rotation=-90;" vertex="1" parent="JDQDigzeUAKK5NOirLmH-37">
          <mxGeometry width="40" height="40" as="geometry" />
        </mxCell>
        <mxCell id="JDQDigzeUAKK5NOirLmH-39" value="" style="whiteSpace=wrap;html=1;aspect=fixed;fillColor=#f8cecc;strokeColor=#b85450;direction=east;flipH=1;flipV=1;rotation=-90;" vertex="1" parent="JDQDigzeUAKK5NOirLmH-37">
          <mxGeometry x="200" width="40" height="40" as="geometry" />
        </mxCell>
        <mxCell id="JDQDigzeUAKK5NOirLmH-40" value="" style="whiteSpace=wrap;html=1;aspect=fixed;fillColor=#f8cecc;strokeColor=#b85450;direction=east;flipH=1;flipV=1;rotation=-90;" vertex="1" parent="JDQDigzeUAKK5NOirLmH-37">
          <mxGeometry x="80" width="40" height="40" as="geometry" />
        </mxCell>
        <mxCell id="JDQDigzeUAKK5NOirLmH-41" value="" style="whiteSpace=wrap;html=1;aspect=fixed;fillColor=#f8cecc;strokeColor=#b85450;direction=east;flipH=1;flipV=1;rotation=-90;" vertex="1" parent="JDQDigzeUAKK5NOirLmH-37">
          <mxGeometry x="40" width="40" height="40" as="geometry" />
        </mxCell>
        <mxCell id="JDQDigzeUAKK5NOirLmH-42" value="" style="whiteSpace=wrap;html=1;aspect=fixed;fillColor=#f8cecc;strokeColor=#b85450;direction=east;flipH=1;flipV=1;rotation=-90;" vertex="1" parent="JDQDigzeUAKK5NOirLmH-37">
          <mxGeometry x="160" width="40" height="40" as="geometry" />
        </mxCell>
        <mxCell id="JDQDigzeUAKK5NOirLmH-43" value="" style="whiteSpace=wrap;html=1;aspect=fixed;fillColor=#f8cecc;strokeColor=#b85450;direction=east;flipH=1;flipV=1;rotation=-90;" vertex="1" parent="JDQDigzeUAKK5NOirLmH-37">
          <mxGeometry x="120" width="40" height="40" as="geometry" />
        </mxCell>
        <mxCell id="JDQDigzeUAKK5NOirLmH-44" value="" style="group" vertex="1" connectable="0" parent="1">
          <mxGeometry x="480.0000000000001" y="400" width="240" height="40" as="geometry" />
        </mxCell>
        <mxCell id="JDQDigzeUAKK5NOirLmH-45" value="" style="whiteSpace=wrap;html=1;aspect=fixed;fillColor=#f8cecc;strokeColor=#b85450;direction=east;flipH=1;flipV=1;rotation=-90;" vertex="1" parent="JDQDigzeUAKK5NOirLmH-44">
          <mxGeometry width="40" height="40" as="geometry" />
        </mxCell>
        <mxCell id="JDQDigzeUAKK5NOirLmH-46" value="" style="whiteSpace=wrap;html=1;aspect=fixed;fillColor=#f8cecc;strokeColor=#b85450;direction=east;flipH=1;flipV=1;rotation=-90;" vertex="1" parent="JDQDigzeUAKK5NOirLmH-44">
          <mxGeometry x="200" width="40" height="40" as="geometry" />
        </mxCell>
        <mxCell id="JDQDigzeUAKK5NOirLmH-47" value="" style="whiteSpace=wrap;html=1;aspect=fixed;fillColor=#f8cecc;strokeColor=#b85450;direction=east;flipH=1;flipV=1;rotation=-90;" vertex="1" parent="JDQDigzeUAKK5NOirLmH-44">
          <mxGeometry x="80" width="40" height="40" as="geometry" />
        </mxCell>
        <mxCell id="JDQDigzeUAKK5NOirLmH-48" value="" style="whiteSpace=wrap;html=1;aspect=fixed;fillColor=#f8cecc;strokeColor=#b85450;direction=east;flipH=1;flipV=1;rotation=-90;" vertex="1" parent="JDQDigzeUAKK5NOirLmH-44">
          <mxGeometry x="40" width="40" height="40" as="geometry" />
        </mxCell>
        <mxCell id="JDQDigzeUAKK5NOirLmH-49" value="" style="whiteSpace=wrap;html=1;aspect=fixed;fillColor=#f8cecc;strokeColor=#b85450;direction=east;flipH=1;flipV=1;rotation=-90;" vertex="1" parent="JDQDigzeUAKK5NOirLmH-44">
          <mxGeometry x="160" width="40" height="40" as="geometry" />
        </mxCell>
        <mxCell id="JDQDigzeUAKK5NOirLmH-50" value="" style="whiteSpace=wrap;html=1;aspect=fixed;fillColor=#f8cecc;strokeColor=#b85450;direction=east;flipH=1;flipV=1;rotation=-90;" vertex="1" parent="JDQDigzeUAKK5NOirLmH-44">
          <mxGeometry x="120" width="40" height="40" as="geometry" />
        </mxCell>
        <mxCell id="JDQDigzeUAKK5NOirLmH-51" value="" style="group" vertex="1" connectable="0" parent="1">
          <mxGeometry x="480.0000000000001" y="440" width="240" height="40" as="geometry" />
        </mxCell>
        <mxCell id="JDQDigzeUAKK5NOirLmH-52" value="" style="whiteSpace=wrap;html=1;aspect=fixed;fillColor=#f8cecc;strokeColor=#b85450;direction=east;flipH=1;flipV=1;rotation=-90;" vertex="1" parent="JDQDigzeUAKK5NOirLmH-51">
          <mxGeometry width="40" height="40" as="geometry" />
        </mxCell>
        <mxCell id="JDQDigzeUAKK5NOirLmH-53" value="" style="whiteSpace=wrap;html=1;aspect=fixed;fillColor=#f8cecc;strokeColor=#b85450;direction=east;flipH=1;flipV=1;rotation=-90;" vertex="1" parent="JDQDigzeUAKK5NOirLmH-51">
          <mxGeometry x="200" width="40" height="40" as="geometry" />
        </mxCell>
        <mxCell id="JDQDigzeUAKK5NOirLmH-54" value="" style="whiteSpace=wrap;html=1;aspect=fixed;fillColor=#f8cecc;strokeColor=#b85450;direction=east;flipH=1;flipV=1;rotation=-90;" vertex="1" parent="JDQDigzeUAKK5NOirLmH-51">
          <mxGeometry x="80" width="40" height="40" as="geometry" />
        </mxCell>
        <mxCell id="JDQDigzeUAKK5NOirLmH-55" value="" style="whiteSpace=wrap;html=1;aspect=fixed;fillColor=#f8cecc;strokeColor=#b85450;direction=east;flipH=1;flipV=1;rotation=-90;" vertex="1" parent="JDQDigzeUAKK5NOirLmH-51">
          <mxGeometry x="40" width="40" height="40" as="geometry" />
        </mxCell>
        <mxCell id="JDQDigzeUAKK5NOirLmH-56" value="" style="whiteSpace=wrap;html=1;aspect=fixed;fillColor=#f8cecc;strokeColor=#b85450;direction=east;flipH=1;flipV=1;rotation=-90;" vertex="1" parent="JDQDigzeUAKK5NOirLmH-51">
          <mxGeometry x="160" width="40" height="40" as="geometry" />
        </mxCell>
        <mxCell id="JDQDigzeUAKK5NOirLmH-57" value="" style="whiteSpace=wrap;html=1;aspect=fixed;fillColor=#f8cecc;strokeColor=#b85450;direction=east;flipH=1;flipV=1;rotation=-90;" vertex="1" parent="JDQDigzeUAKK5NOirLmH-51">
          <mxGeometry x="120" width="40" height="40" as="geometry" />
        </mxCell>
        <mxCell id="JDQDigzeUAKK5NOirLmH-58" value="" style="group" vertex="1" connectable="0" parent="1">
          <mxGeometry x="480.0000000000001" y="480" width="240" height="40" as="geometry" />
        </mxCell>
        <mxCell id="JDQDigzeUAKK5NOirLmH-59" value="" style="whiteSpace=wrap;html=1;aspect=fixed;fillColor=#f8cecc;strokeColor=#b85450;direction=east;flipH=1;flipV=1;rotation=-90;" vertex="1" parent="JDQDigzeUAKK5NOirLmH-58">
          <mxGeometry width="40" height="40" as="geometry" />
        </mxCell>
        <mxCell id="JDQDigzeUAKK5NOirLmH-60" value="" style="whiteSpace=wrap;html=1;aspect=fixed;fillColor=#f8cecc;strokeColor=#b85450;direction=east;flipH=1;flipV=1;rotation=-90;" vertex="1" parent="JDQDigzeUAKK5NOirLmH-58">
          <mxGeometry x="200" width="40" height="40" as="geometry" />
        </mxCell>
        <mxCell id="JDQDigzeUAKK5NOirLmH-61" value="" style="whiteSpace=wrap;html=1;aspect=fixed;fillColor=#f8cecc;strokeColor=#b85450;direction=east;flipH=1;flipV=1;rotation=-90;" vertex="1" parent="JDQDigzeUAKK5NOirLmH-58">
          <mxGeometry x="80" width="40" height="40" as="geometry" />
        </mxCell>
        <mxCell id="JDQDigzeUAKK5NOirLmH-62" value="" style="whiteSpace=wrap;html=1;aspect=fixed;fillColor=#f8cecc;strokeColor=#b85450;direction=east;flipH=1;flipV=1;rotation=-90;" vertex="1" parent="JDQDigzeUAKK5NOirLmH-58">
          <mxGeometry x="40" width="40" height="40" as="geometry" />
        </mxCell>
        <mxCell id="JDQDigzeUAKK5NOirLmH-63" value="" style="whiteSpace=wrap;html=1;aspect=fixed;fillColor=#f8cecc;strokeColor=#b85450;direction=east;flipH=1;flipV=1;rotation=-90;" vertex="1" parent="JDQDigzeUAKK5NOirLmH-58">
          <mxGeometry x="160" width="40" height="40" as="geometry" />
        </mxCell>
        <mxCell id="JDQDigzeUAKK5NOirLmH-64" value="" style="whiteSpace=wrap;html=1;aspect=fixed;fillColor=#f8cecc;strokeColor=#b85450;direction=east;flipH=1;flipV=1;rotation=-90;" vertex="1" parent="JDQDigzeUAKK5NOirLmH-58">
          <mxGeometry x="120" width="40" height="40" as="geometry" />
        </mxCell>
        <mxCell id="JDQDigzeUAKK5NOirLmH-107" value="&lt;span style=&quot;font-size: 12px;&quot;&gt;&lt;b style=&quot;vertical-align: sub;&quot;&gt;A&lt;/b&gt;&lt;b style=&quot;&quot;&gt;&lt;sub&gt;i&lt;/sub&gt;&lt;/b&gt;&lt;b style=&quot;vertical-align: sub;&quot;&gt;&amp;nbsp;&lt;/b&gt;&lt;sub&gt;6x1&lt;/sub&gt;&lt;/span&gt;" style="text;html=1;strokeColor=none;fillColor=none;align=center;verticalAlign=middle;whiteSpace=wrap;rounded=0;rotation=-90;" vertex="1" parent="1">
          <mxGeometry x="-10" y="410" width="60" height="30" as="geometry" />
        </mxCell>
        <mxCell id="JDQDigzeUAKK5NOirLmH-110" value="&lt;span style=&quot;font-size: 12px;&quot;&gt;&lt;b style=&quot;vertical-align: sub;&quot;&gt;B&lt;/b&gt;&lt;b style=&quot;&quot;&gt;&lt;sub&gt;i&lt;/sub&gt;&lt;/b&gt;&lt;b style=&quot;vertical-align: sub;&quot;&gt;&amp;nbsp;&lt;/b&gt;&lt;sub&gt;6x1&lt;/sub&gt;&lt;/span&gt;" style="text;html=1;strokeColor=none;fillColor=none;align=center;verticalAlign=middle;whiteSpace=wrap;rounded=0;rotation=0;" vertex="1" parent="1">
          <mxGeometry x="250" y="320" width="60" height="30" as="geometry" />
        </mxCell>
        <mxCell id="JDQDigzeUAKK5NOirLmH-111" value="&lt;b&gt;W &#39; &lt;/b&gt;&lt;sub style=&quot;&quot;&gt;6&lt;/sub&gt;&lt;sub&gt;x6&lt;/sub&gt;" style="text;html=1;strokeColor=none;fillColor=none;align=center;verticalAlign=middle;whiteSpace=wrap;rounded=0;" vertex="1" parent="1">
          <mxGeometry x="570" y="520" width="60" height="30" as="geometry" />
        </mxCell>
        <mxCell id="JDQDigzeUAKK5NOirLmH-112" value="" style="group" vertex="1" connectable="0" parent="1">
          <mxGeometry x="480.0000000000001" y="40" width="360" height="200" as="geometry" />
        </mxCell>
        <mxCell id="JDQDigzeUAKK5NOirLmH-76" value="" style="group;fillColor=#D0E2D0;strokeColor=#82b366;" vertex="1" connectable="0" parent="JDQDigzeUAKK5NOirLmH-112">
          <mxGeometry width="360" height="40" as="geometry" />
        </mxCell>
        <mxCell id="JDQDigzeUAKK5NOirLmH-66" value="" style="whiteSpace=wrap;html=1;aspect=fixed;fillColor=#D0E2D0;strokeColor=#82b366;direction=east;flipH=1;flipV=1;rotation=-90;container=0;" vertex="1" parent="JDQDigzeUAKK5NOirLmH-76">
          <mxGeometry width="40" height="40" as="geometry" />
        </mxCell>
        <mxCell id="JDQDigzeUAKK5NOirLmH-67" value="" style="whiteSpace=wrap;html=1;aspect=fixed;fillColor=#D0E2D0;strokeColor=#82b366;direction=east;flipH=1;flipV=1;rotation=-90;container=0;" vertex="1" parent="JDQDigzeUAKK5NOirLmH-76">
          <mxGeometry x="40" width="40" height="40" as="geometry" />
        </mxCell>
        <mxCell id="JDQDigzeUAKK5NOirLmH-68" value="" style="whiteSpace=wrap;html=1;aspect=fixed;fillColor=#D0E2D0;strokeColor=#82b366;direction=east;flipH=1;flipV=1;rotation=-90;container=0;" vertex="1" parent="JDQDigzeUAKK5NOirLmH-76">
          <mxGeometry x="80" width="40" height="40" as="geometry" />
        </mxCell>
        <mxCell id="JDQDigzeUAKK5NOirLmH-69" value="" style="whiteSpace=wrap;html=1;aspect=fixed;fillColor=#D0E2D0;strokeColor=#82b366;direction=east;flipH=1;flipV=1;rotation=-90;container=0;" vertex="1" parent="JDQDigzeUAKK5NOirLmH-76">
          <mxGeometry x="120" width="40" height="40" as="geometry" />
        </mxCell>
        <mxCell id="JDQDigzeUAKK5NOirLmH-70" value="" style="whiteSpace=wrap;html=1;aspect=fixed;fillColor=#D0E2D0;strokeColor=#82b366;direction=east;flipH=1;flipV=1;rotation=-90;container=0;" vertex="1" parent="JDQDigzeUAKK5NOirLmH-76">
          <mxGeometry x="160" width="40" height="40" as="geometry" />
        </mxCell>
        <mxCell id="JDQDigzeUAKK5NOirLmH-71" value="" style="whiteSpace=wrap;html=1;aspect=fixed;fillColor=#D0E2D0;strokeColor=#82b366;direction=east;flipH=1;flipV=1;rotation=-90;container=0;" vertex="1" parent="JDQDigzeUAKK5NOirLmH-76">
          <mxGeometry x="200" width="40" height="40" as="geometry" />
        </mxCell>
        <mxCell id="JDQDigzeUAKK5NOirLmH-72" value="" style="whiteSpace=wrap;html=1;aspect=fixed;fillColor=#D0E2D0;strokeColor=#82b366;direction=east;flipH=1;flipV=1;rotation=-90;container=0;" vertex="1" parent="JDQDigzeUAKK5NOirLmH-76">
          <mxGeometry x="240" width="40" height="40" as="geometry" />
        </mxCell>
        <mxCell id="JDQDigzeUAKK5NOirLmH-73" value="" style="whiteSpace=wrap;html=1;aspect=fixed;fillColor=#D0E2D0;strokeColor=#82b366;direction=east;flipH=1;flipV=1;rotation=-90;container=0;" vertex="1" parent="JDQDigzeUAKK5NOirLmH-76">
          <mxGeometry x="280" width="40" height="40" as="geometry" />
        </mxCell>
        <mxCell id="JDQDigzeUAKK5NOirLmH-74" value="" style="whiteSpace=wrap;html=1;aspect=fixed;fillColor=#D0E2D0;strokeColor=#82b366;direction=east;flipH=1;flipV=1;rotation=-90;container=0;" vertex="1" parent="JDQDigzeUAKK5NOirLmH-76">
          <mxGeometry x="320" width="40" height="40" as="geometry" />
        </mxCell>
        <mxCell id="JDQDigzeUAKK5NOirLmH-77" value="" style="group;fillColor=#D0E2D0;strokeColor=#82b366;" vertex="1" connectable="0" parent="JDQDigzeUAKK5NOirLmH-112">
          <mxGeometry y="40" width="360" height="40" as="geometry" />
        </mxCell>
        <mxCell id="JDQDigzeUAKK5NOirLmH-78" value="" style="whiteSpace=wrap;html=1;aspect=fixed;fillColor=#D0E2D0;strokeColor=#82b366;direction=east;flipH=1;flipV=1;rotation=-90;container=0;" vertex="1" parent="JDQDigzeUAKK5NOirLmH-77">
          <mxGeometry width="40" height="40" as="geometry" />
        </mxCell>
        <mxCell id="JDQDigzeUAKK5NOirLmH-79" value="" style="whiteSpace=wrap;html=1;aspect=fixed;fillColor=#D0E2D0;strokeColor=#82b366;direction=east;flipH=1;flipV=1;rotation=-90;container=0;" vertex="1" parent="JDQDigzeUAKK5NOirLmH-77">
          <mxGeometry x="40" width="40" height="40" as="geometry" />
        </mxCell>
        <mxCell id="JDQDigzeUAKK5NOirLmH-80" value="" style="whiteSpace=wrap;html=1;aspect=fixed;fillColor=#D0E2D0;strokeColor=#82b366;direction=east;flipH=1;flipV=1;rotation=-90;container=0;" vertex="1" parent="JDQDigzeUAKK5NOirLmH-77">
          <mxGeometry x="80" width="40" height="40" as="geometry" />
        </mxCell>
        <mxCell id="JDQDigzeUAKK5NOirLmH-81" value="" style="whiteSpace=wrap;html=1;aspect=fixed;fillColor=#D0E2D0;strokeColor=#82b366;direction=east;flipH=1;flipV=1;rotation=-90;container=0;" vertex="1" parent="JDQDigzeUAKK5NOirLmH-77">
          <mxGeometry x="120" width="40" height="40" as="geometry" />
        </mxCell>
        <mxCell id="JDQDigzeUAKK5NOirLmH-82" value="" style="whiteSpace=wrap;html=1;aspect=fixed;fillColor=#D0E2D0;strokeColor=#82b366;direction=east;flipH=1;flipV=1;rotation=-90;container=0;" vertex="1" parent="JDQDigzeUAKK5NOirLmH-77">
          <mxGeometry x="160" width="40" height="40" as="geometry" />
        </mxCell>
        <mxCell id="JDQDigzeUAKK5NOirLmH-83" value="" style="whiteSpace=wrap;html=1;aspect=fixed;fillColor=#D0E2D0;strokeColor=#82b366;direction=east;flipH=1;flipV=1;rotation=-90;container=0;" vertex="1" parent="JDQDigzeUAKK5NOirLmH-77">
          <mxGeometry x="200" width="40" height="40" as="geometry" />
        </mxCell>
        <mxCell id="JDQDigzeUAKK5NOirLmH-84" value="" style="whiteSpace=wrap;html=1;aspect=fixed;fillColor=#D0E2D0;strokeColor=#82b366;direction=east;flipH=1;flipV=1;rotation=-90;container=0;" vertex="1" parent="JDQDigzeUAKK5NOirLmH-77">
          <mxGeometry x="240" width="40" height="40" as="geometry" />
        </mxCell>
        <mxCell id="JDQDigzeUAKK5NOirLmH-85" value="" style="whiteSpace=wrap;html=1;aspect=fixed;fillColor=#D0E2D0;strokeColor=#82b366;direction=east;flipH=1;flipV=1;rotation=-90;container=0;" vertex="1" parent="JDQDigzeUAKK5NOirLmH-77">
          <mxGeometry x="280" width="40" height="40" as="geometry" />
        </mxCell>
        <mxCell id="JDQDigzeUAKK5NOirLmH-86" value="" style="whiteSpace=wrap;html=1;aspect=fixed;fillColor=#D0E2D0;strokeColor=#82b366;direction=east;flipH=1;flipV=1;rotation=-90;container=0;" vertex="1" parent="JDQDigzeUAKK5NOirLmH-77">
          <mxGeometry x="320" width="40" height="40" as="geometry" />
        </mxCell>
        <mxCell id="JDQDigzeUAKK5NOirLmH-87" value="" style="group;fillColor=#D0E2D0;strokeColor=#82b366;" vertex="1" connectable="0" parent="JDQDigzeUAKK5NOirLmH-112">
          <mxGeometry y="80" width="360" height="40" as="geometry" />
        </mxCell>
        <mxCell id="JDQDigzeUAKK5NOirLmH-88" value="" style="whiteSpace=wrap;html=1;aspect=fixed;fillColor=#D0E2D0;strokeColor=#82b366;direction=east;flipH=1;flipV=1;rotation=-90;container=0;" vertex="1" parent="JDQDigzeUAKK5NOirLmH-87">
          <mxGeometry width="40" height="40" as="geometry" />
        </mxCell>
        <mxCell id="JDQDigzeUAKK5NOirLmH-89" value="" style="whiteSpace=wrap;html=1;aspect=fixed;fillColor=#D0E2D0;strokeColor=#82b366;direction=east;flipH=1;flipV=1;rotation=-90;container=0;" vertex="1" parent="JDQDigzeUAKK5NOirLmH-87">
          <mxGeometry x="40" width="40" height="40" as="geometry" />
        </mxCell>
        <mxCell id="JDQDigzeUAKK5NOirLmH-90" value="" style="whiteSpace=wrap;html=1;aspect=fixed;fillColor=#D0E2D0;strokeColor=#82b366;direction=east;flipH=1;flipV=1;rotation=-90;container=0;" vertex="1" parent="JDQDigzeUAKK5NOirLmH-87">
          <mxGeometry x="80" width="40" height="40" as="geometry" />
        </mxCell>
        <mxCell id="JDQDigzeUAKK5NOirLmH-91" value="" style="whiteSpace=wrap;html=1;aspect=fixed;fillColor=#D0E2D0;strokeColor=#82b366;direction=east;flipH=1;flipV=1;rotation=-90;container=0;" vertex="1" parent="JDQDigzeUAKK5NOirLmH-87">
          <mxGeometry x="120" width="40" height="40" as="geometry" />
        </mxCell>
        <mxCell id="JDQDigzeUAKK5NOirLmH-92" value="" style="whiteSpace=wrap;html=1;aspect=fixed;fillColor=#D0E2D0;strokeColor=#82b366;direction=east;flipH=1;flipV=1;rotation=-90;container=0;" vertex="1" parent="JDQDigzeUAKK5NOirLmH-87">
          <mxGeometry x="160" width="40" height="40" as="geometry" />
        </mxCell>
        <mxCell id="JDQDigzeUAKK5NOirLmH-93" value="" style="whiteSpace=wrap;html=1;aspect=fixed;fillColor=#D0E2D0;strokeColor=#82b366;direction=east;flipH=1;flipV=1;rotation=-90;container=0;" vertex="1" parent="JDQDigzeUAKK5NOirLmH-87">
          <mxGeometry x="200" width="40" height="40" as="geometry" />
        </mxCell>
        <mxCell id="JDQDigzeUAKK5NOirLmH-94" value="" style="whiteSpace=wrap;html=1;aspect=fixed;fillColor=#D0E2D0;strokeColor=#82b366;direction=east;flipH=1;flipV=1;rotation=-90;container=0;" vertex="1" parent="JDQDigzeUAKK5NOirLmH-87">
          <mxGeometry x="240" width="40" height="40" as="geometry" />
        </mxCell>
        <mxCell id="JDQDigzeUAKK5NOirLmH-95" value="" style="whiteSpace=wrap;html=1;aspect=fixed;fillColor=#D0E2D0;strokeColor=#82b366;direction=east;flipH=1;flipV=1;rotation=-90;container=0;" vertex="1" parent="JDQDigzeUAKK5NOirLmH-87">
          <mxGeometry x="280" width="40" height="40" as="geometry" />
        </mxCell>
        <mxCell id="JDQDigzeUAKK5NOirLmH-96" value="" style="whiteSpace=wrap;html=1;aspect=fixed;fillColor=#D0E2D0;strokeColor=#82b366;direction=east;flipH=1;flipV=1;rotation=-90;container=0;" vertex="1" parent="JDQDigzeUAKK5NOirLmH-87">
          <mxGeometry x="320" width="40" height="40" as="geometry" />
        </mxCell>
        <mxCell id="JDQDigzeUAKK5NOirLmH-97" value="" style="group;fillColor=#D0E2D0;strokeColor=#82b366;" vertex="1" connectable="0" parent="JDQDigzeUAKK5NOirLmH-112">
          <mxGeometry y="120" width="360" height="40" as="geometry" />
        </mxCell>
        <mxCell id="JDQDigzeUAKK5NOirLmH-98" value="" style="whiteSpace=wrap;html=1;aspect=fixed;fillColor=#D0E2D0;strokeColor=#82b366;direction=east;flipH=1;flipV=1;rotation=-90;container=0;" vertex="1" parent="JDQDigzeUAKK5NOirLmH-97">
          <mxGeometry width="40" height="40" as="geometry" />
        </mxCell>
        <mxCell id="JDQDigzeUAKK5NOirLmH-99" value="" style="whiteSpace=wrap;html=1;aspect=fixed;fillColor=#D0E2D0;strokeColor=#82b366;direction=east;flipH=1;flipV=1;rotation=-90;container=0;" vertex="1" parent="JDQDigzeUAKK5NOirLmH-97">
          <mxGeometry x="40" width="40" height="40" as="geometry" />
        </mxCell>
        <mxCell id="JDQDigzeUAKK5NOirLmH-100" value="" style="whiteSpace=wrap;html=1;aspect=fixed;fillColor=#D0E2D0;strokeColor=#82b366;direction=east;flipH=1;flipV=1;rotation=-90;container=0;" vertex="1" parent="JDQDigzeUAKK5NOirLmH-97">
          <mxGeometry x="80" width="40" height="40" as="geometry" />
        </mxCell>
        <mxCell id="JDQDigzeUAKK5NOirLmH-101" value="" style="whiteSpace=wrap;html=1;aspect=fixed;fillColor=#D0E2D0;strokeColor=#82b366;direction=east;flipH=1;flipV=1;rotation=-90;container=0;" vertex="1" parent="JDQDigzeUAKK5NOirLmH-97">
          <mxGeometry x="120" width="40" height="40" as="geometry" />
        </mxCell>
        <mxCell id="JDQDigzeUAKK5NOirLmH-102" value="" style="whiteSpace=wrap;html=1;aspect=fixed;fillColor=#D0E2D0;strokeColor=#82b366;direction=east;flipH=1;flipV=1;rotation=-90;container=0;" vertex="1" parent="JDQDigzeUAKK5NOirLmH-97">
          <mxGeometry x="160" width="40" height="40" as="geometry" />
        </mxCell>
        <mxCell id="JDQDigzeUAKK5NOirLmH-103" value="" style="whiteSpace=wrap;html=1;aspect=fixed;fillColor=#D0E2D0;strokeColor=#82b366;direction=east;flipH=1;flipV=1;rotation=-90;container=0;" vertex="1" parent="JDQDigzeUAKK5NOirLmH-97">
          <mxGeometry x="200" width="40" height="40" as="geometry" />
        </mxCell>
        <mxCell id="JDQDigzeUAKK5NOirLmH-104" value="" style="whiteSpace=wrap;html=1;aspect=fixed;fillColor=#D0E2D0;strokeColor=#82b366;direction=east;flipH=1;flipV=1;rotation=-90;container=0;" vertex="1" parent="JDQDigzeUAKK5NOirLmH-97">
          <mxGeometry x="240" width="40" height="40" as="geometry" />
        </mxCell>
        <mxCell id="JDQDigzeUAKK5NOirLmH-105" value="" style="whiteSpace=wrap;html=1;aspect=fixed;fillColor=#D0E2D0;strokeColor=#82b366;direction=east;flipH=1;flipV=1;rotation=-90;container=0;" vertex="1" parent="JDQDigzeUAKK5NOirLmH-97">
          <mxGeometry x="280" width="40" height="40" as="geometry" />
        </mxCell>
        <mxCell id="JDQDigzeUAKK5NOirLmH-106" value="" style="whiteSpace=wrap;html=1;aspect=fixed;fillColor=#D0E2D0;strokeColor=#82b366;direction=east;flipH=1;flipV=1;rotation=-90;container=0;" vertex="1" parent="JDQDigzeUAKK5NOirLmH-97">
          <mxGeometry x="320" width="40" height="40" as="geometry" />
        </mxCell>
        <mxCell id="JDQDigzeUAKK5NOirLmH-109" value="&lt;b&gt;W&amp;nbsp;&lt;/b&gt;&lt;sub&gt;4x9&lt;/sub&gt;" style="text;html=1;strokeColor=none;fillColor=none;align=center;verticalAlign=middle;whiteSpace=wrap;rounded=0;" vertex="1" parent="JDQDigzeUAKK5NOirLmH-112">
          <mxGeometry x="159.9999999999999" y="170" width="60" height="30" as="geometry" />
        </mxCell>
        <mxCell id="JDQDigzeUAKK5NOirLmH-130" value="" style="shape=flexArrow;endArrow=classic;html=1;rounded=0;fillColor=#CCCCCC;strokeColor=#36393d;" edge="1" parent="JDQDigzeUAKK5NOirLmH-112">
          <mxGeometry width="50" height="50" relative="1" as="geometry">
            <mxPoint x="119.99999999999989" y="170" as="sourcePoint" />
            <mxPoint x="119.99999999999989" y="235" as="targetPoint" />
          </mxGeometry>
        </mxCell>
        <mxCell id="JDQDigzeUAKK5NOirLmH-131" value="Rearrange" style="edgeLabel;html=1;align=center;verticalAlign=middle;resizable=0;points=[];" vertex="1" connectable="0" parent="JDQDigzeUAKK5NOirLmH-130">
          <mxGeometry x="0.4759" y="1" relative="1" as="geometry">
            <mxPoint x="-41" y="-24" as="offset" />
          </mxGeometry>
        </mxCell>
        <mxCell id="JDQDigzeUAKK5NOirLmH-126" value="&lt;span style=&quot;font-size: 12px;&quot;&gt;&lt;b style=&quot;vertical-align: sub;&quot;&gt;A&lt;/b&gt;&lt;b style=&quot;&quot;&gt;&lt;sub&gt;i&lt;/sub&gt;&lt;/b&gt;&lt;b style=&quot;vertical-align: sub;&quot;&gt;&#39;&amp;nbsp;&lt;/b&gt;&lt;sub&gt;2x3&lt;/sub&gt;&lt;/span&gt;" style="text;html=1;strokeColor=none;fillColor=none;align=center;verticalAlign=middle;whiteSpace=wrap;rounded=0;rotation=0;" vertex="1" parent="1">
          <mxGeometry x="110" y="720" width="60" height="30" as="geometry" />
        </mxCell>
        <mxCell id="JDQDigzeUAKK5NOirLmH-127" value="&lt;span style=&quot;font-size: 12px;&quot;&gt;&lt;b style=&quot;vertical-align: sub;&quot;&gt;B&lt;/b&gt;&lt;b style=&quot;&quot;&gt;&lt;sub&gt;i&lt;/sub&gt;&lt;/b&gt;&lt;b style=&quot;vertical-align: sub;&quot;&gt;&#39; &lt;/b&gt;&lt;sub&gt;2x3&lt;/sub&gt;&lt;/span&gt;" style="text;html=1;strokeColor=none;fillColor=none;align=center;verticalAlign=middle;whiteSpace=wrap;rounded=0;rotation=0;" vertex="1" parent="1">
          <mxGeometry x="310" y="720" width="60" height="30" as="geometry" />
        </mxCell>
        <mxCell id="JDQDigzeUAKK5NOirLmH-128" value="" style="shape=flexArrow;endArrow=classic;html=1;rounded=0;fillColor=#CCCCCC;strokeColor=#36393d;" edge="1" parent="1">
          <mxGeometry width="50" height="50" relative="1" as="geometry">
            <mxPoint x="260" y="540" as="sourcePoint" />
            <mxPoint x="260" y="605" as="targetPoint" />
          </mxGeometry>
        </mxCell>
        <mxCell id="JDQDigzeUAKK5NOirLmH-129" value="Reshape" style="edgeLabel;html=1;align=center;verticalAlign=middle;resizable=0;points=[];" vertex="1" connectable="0" parent="JDQDigzeUAKK5NOirLmH-128">
          <mxGeometry x="0.4759" y="1" relative="1" as="geometry">
            <mxPoint x="29" y="-24" as="offset" />
          </mxGeometry>
        </mxCell>
        <mxCell id="JDQDigzeUAKK5NOirLmH-132" value="" style="shape=flexArrow;endArrow=classic;html=1;rounded=0;fillColor=#CCCCCC;strokeColor=#36393d;" edge="1" parent="1">
          <mxGeometry width="50" height="50" relative="1" as="geometry">
            <mxPoint x="470" y="359" as="sourcePoint" />
            <mxPoint x="410" y="359" as="targetPoint" />
          </mxGeometry>
        </mxCell>
        <mxCell id="JDQDigzeUAKK5NOirLmH-133" value="Store" style="edgeLabel;html=1;align=center;verticalAlign=middle;resizable=0;points=[];" vertex="1" connectable="0" parent="JDQDigzeUAKK5NOirLmH-132">
          <mxGeometry x="0.4759" y="1" relative="1" as="geometry">
            <mxPoint x="14" y="-31" as="offset" />
          </mxGeometry>
        </mxCell>
        <mxCell id="JDQDigzeUAKK5NOirLmH-134" value="" style="shape=flexArrow;endArrow=classic;html=1;rounded=0;fillColor=#f9f7ed;strokeColor=#36393d;" edge="1" parent="1">
          <mxGeometry width="50" height="50" relative="1" as="geometry">
            <mxPoint x="410" y="440" as="sourcePoint" />
            <mxPoint x="470" y="440" as="targetPoint" />
          </mxGeometry>
        </mxCell>
        <mxCell id="JDQDigzeUAKK5NOirLmH-135" value="Reconstruct" style="edgeLabel;html=1;align=center;verticalAlign=middle;resizable=0;points=[];" vertex="1" connectable="0" parent="JDQDigzeUAKK5NOirLmH-134">
          <mxGeometry x="0.4759" y="1" relative="1" as="geometry">
            <mxPoint x="-14" y="31" as="offset" />
          </mxGeometry>
        </mxCell>
        <mxCell id="JDQDigzeUAKK5NOirLmH-143" value="" style="endArrow=none;dashed=1;html=1;dashPattern=1 3;strokeWidth=2;rounded=0;" edge="1" parent="1">
          <mxGeometry width="50" height="50" relative="1" as="geometry">
            <mxPoint x="310" y="250" as="sourcePoint" />
            <mxPoint x="340" y="220" as="targetPoint" />
            <Array as="points">
              <mxPoint x="310" y="250" />
            </Array>
          </mxGeometry>
        </mxCell>
        <mxCell id="JDQDigzeUAKK5NOirLmH-144" value="r" style="shape=curlyBracket;whiteSpace=wrap;html=1;rounded=1;labelPosition=left;verticalLabelPosition=middle;align=right;verticalAlign=middle;rotation=45;" vertex="1" parent="1">
          <mxGeometry x="200" y="140" width="20" height="150" as="geometry" />
        </mxCell>
        <mxCell id="JDQDigzeUAKK5NOirLmH-145" value="" style="group;fillColor=#ffe6cc;strokeColor=#d79b00;" vertex="1" connectable="0" parent="1">
          <mxGeometry x="40" y="300" width="40" height="240" as="geometry" />
        </mxCell>
        <mxCell id="JDQDigzeUAKK5NOirLmH-1" value="" style="whiteSpace=wrap;html=1;aspect=fixed;fillColor=#ffe6cc;strokeColor=#d79b00;" vertex="1" parent="JDQDigzeUAKK5NOirLmH-145">
          <mxGeometry width="40" height="40" as="geometry" />
        </mxCell>
        <mxCell id="JDQDigzeUAKK5NOirLmH-2" value="" style="whiteSpace=wrap;html=1;aspect=fixed;fillColor=#ffe6cc;strokeColor=#d79b00;" vertex="1" parent="JDQDigzeUAKK5NOirLmH-145">
          <mxGeometry y="40" width="40" height="40" as="geometry" />
        </mxCell>
        <mxCell id="JDQDigzeUAKK5NOirLmH-4" value="" style="whiteSpace=wrap;html=1;aspect=fixed;fillColor=#ffe6cc;strokeColor=#d79b00;" vertex="1" parent="JDQDigzeUAKK5NOirLmH-145">
          <mxGeometry y="80" width="40" height="40" as="geometry" />
        </mxCell>
        <mxCell id="JDQDigzeUAKK5NOirLmH-5" value="" style="whiteSpace=wrap;html=1;aspect=fixed;fillColor=#ffe6cc;strokeColor=#d79b00;" vertex="1" parent="JDQDigzeUAKK5NOirLmH-145">
          <mxGeometry y="120" width="40" height="40" as="geometry" />
        </mxCell>
        <mxCell id="JDQDigzeUAKK5NOirLmH-6" value="" style="whiteSpace=wrap;html=1;aspect=fixed;fillColor=#ffe6cc;strokeColor=#d79b00;" vertex="1" parent="JDQDigzeUAKK5NOirLmH-145">
          <mxGeometry y="160" width="40" height="40" as="geometry" />
        </mxCell>
        <mxCell id="JDQDigzeUAKK5NOirLmH-7" value="" style="whiteSpace=wrap;html=1;aspect=fixed;fillColor=#ffe6cc;strokeColor=#d79b00;" vertex="1" parent="JDQDigzeUAKK5NOirLmH-145">
          <mxGeometry y="200" width="40" height="40" as="geometry" />
        </mxCell>
        <mxCell id="JDQDigzeUAKK5NOirLmH-153" value="" style="endArrow=none;dashed=1;html=1;dashPattern=1 3;strokeWidth=2;rounded=0;" edge="1" parent="1">
          <mxGeometry width="50" height="50" relative="1" as="geometry">
            <mxPoint x="110" y="395" as="sourcePoint" />
            <mxPoint x="140" y="365" as="targetPoint" />
            <Array as="points">
              <mxPoint x="110" y="395" />
            </Array>
          </mxGeometry>
        </mxCell>
        <mxCell id="JDQDigzeUAKK5NOirLmH-154" value="" style="group" vertex="1" connectable="0" parent="1">
          <mxGeometry x="80" y="640" width="120" height="80" as="geometry" />
        </mxCell>
        <mxCell id="JDQDigzeUAKK5NOirLmH-113" value="" style="whiteSpace=wrap;html=1;aspect=fixed;fillColor=#ffe6cc;strokeColor=#d79b00;" vertex="1" parent="JDQDigzeUAKK5NOirLmH-154">
          <mxGeometry width="40" height="40" as="geometry" />
        </mxCell>
        <mxCell id="JDQDigzeUAKK5NOirLmH-114" value="" style="whiteSpace=wrap;html=1;aspect=fixed;fillColor=#ffe6cc;strokeColor=#d79b00;" vertex="1" parent="JDQDigzeUAKK5NOirLmH-154">
          <mxGeometry y="40" width="40" height="40" as="geometry" />
        </mxCell>
        <mxCell id="JDQDigzeUAKK5NOirLmH-115" value="" style="whiteSpace=wrap;html=1;aspect=fixed;fillColor=#ffe6cc;strokeColor=#d79b00;" vertex="1" parent="JDQDigzeUAKK5NOirLmH-154">
          <mxGeometry x="40" width="40" height="40" as="geometry" />
        </mxCell>
        <mxCell id="JDQDigzeUAKK5NOirLmH-116" value="" style="whiteSpace=wrap;html=1;aspect=fixed;fillColor=#ffe6cc;strokeColor=#d79b00;" vertex="1" parent="JDQDigzeUAKK5NOirLmH-154">
          <mxGeometry x="40" y="40" width="40" height="40" as="geometry" />
        </mxCell>
        <mxCell id="JDQDigzeUAKK5NOirLmH-117" value="" style="whiteSpace=wrap;html=1;aspect=fixed;fillColor=#ffe6cc;strokeColor=#d79b00;" vertex="1" parent="JDQDigzeUAKK5NOirLmH-154">
          <mxGeometry x="80" width="40" height="40" as="geometry" />
        </mxCell>
        <mxCell id="JDQDigzeUAKK5NOirLmH-118" value="" style="whiteSpace=wrap;html=1;aspect=fixed;fillColor=#ffe6cc;strokeColor=#d79b00;" vertex="1" parent="JDQDigzeUAKK5NOirLmH-154">
          <mxGeometry x="80" y="40" width="40" height="40" as="geometry" />
        </mxCell>
        <mxCell id="JDQDigzeUAKK5NOirLmH-163" value="" style="group" vertex="1" connectable="0" parent="1">
          <mxGeometry x="280.0000000000001" y="640" width="140" height="80" as="geometry" />
        </mxCell>
        <mxCell id="JDQDigzeUAKK5NOirLmH-165" value="" style="whiteSpace=wrap;html=1;aspect=fixed;fillColor=#fff2cc;strokeColor=#d6b656;direction=east;flipH=1;flipV=1;rotation=-90;opacity=60;" vertex="1" parent="JDQDigzeUAKK5NOirLmH-163">
          <mxGeometry x="20" y="20" width="40" height="40" as="geometry" />
        </mxCell>
        <mxCell id="JDQDigzeUAKK5NOirLmH-166" value="" style="whiteSpace=wrap;html=1;aspect=fixed;fillColor=#fff2cc;strokeColor=#d6b656;direction=east;flipH=1;flipV=1;rotation=-90;opacity=60;" vertex="1" parent="JDQDigzeUAKK5NOirLmH-163">
          <mxGeometry x="60" y="20" width="40" height="40" as="geometry" />
        </mxCell>
        <mxCell id="JDQDigzeUAKK5NOirLmH-167" value="" style="whiteSpace=wrap;html=1;aspect=fixed;fillColor=#fff2cc;strokeColor=#d6b656;direction=east;flipH=1;flipV=1;rotation=-90;opacity=60;" vertex="1" parent="JDQDigzeUAKK5NOirLmH-163">
          <mxGeometry x="100" y="20" width="40" height="40" as="geometry" />
        </mxCell>
        <mxCell id="JDQDigzeUAKK5NOirLmH-168" value="" style="whiteSpace=wrap;html=1;aspect=fixed;fillColor=#fff2cc;strokeColor=#d6b656;direction=east;flipH=1;flipV=1;rotation=-90;opacity=60;" vertex="1" parent="JDQDigzeUAKK5NOirLmH-163">
          <mxGeometry x="20" y="-20" width="40" height="40" as="geometry" />
        </mxCell>
        <mxCell id="JDQDigzeUAKK5NOirLmH-169" value="" style="whiteSpace=wrap;html=1;aspect=fixed;fillColor=#fff2cc;strokeColor=#d6b656;direction=east;flipH=1;flipV=1;rotation=-90;opacity=60;" vertex="1" parent="JDQDigzeUAKK5NOirLmH-163">
          <mxGeometry x="60" y="-20" width="40" height="40" as="geometry" />
        </mxCell>
        <mxCell id="JDQDigzeUAKK5NOirLmH-170" value="" style="whiteSpace=wrap;html=1;aspect=fixed;fillColor=#fff2cc;strokeColor=#d6b656;direction=east;flipH=1;flipV=1;rotation=-90;opacity=60;" vertex="1" parent="JDQDigzeUAKK5NOirLmH-163">
          <mxGeometry x="100" y="-20" width="40" height="40" as="geometry" />
        </mxCell>
        <mxCell id="JDQDigzeUAKK5NOirLmH-120" value="" style="whiteSpace=wrap;html=1;aspect=fixed;fillColor=#fff2cc;strokeColor=#d6b656;direction=east;flipH=1;flipV=1;rotation=-90;" vertex="1" parent="JDQDigzeUAKK5NOirLmH-163">
          <mxGeometry y="40" width="40" height="40" as="geometry" />
        </mxCell>
        <mxCell id="JDQDigzeUAKK5NOirLmH-121" value="" style="whiteSpace=wrap;html=1;aspect=fixed;fillColor=#fff2cc;strokeColor=#d6b656;direction=east;flipH=1;flipV=1;rotation=-90;" vertex="1" parent="JDQDigzeUAKK5NOirLmH-163">
          <mxGeometry x="40" y="40" width="40" height="40" as="geometry" />
        </mxCell>
        <mxCell id="JDQDigzeUAKK5NOirLmH-122" value="" style="whiteSpace=wrap;html=1;aspect=fixed;fillColor=#fff2cc;strokeColor=#d6b656;direction=east;flipH=1;flipV=1;rotation=-90;" vertex="1" parent="JDQDigzeUAKK5NOirLmH-163">
          <mxGeometry x="80" y="40" width="40" height="40" as="geometry" />
        </mxCell>
        <mxCell id="JDQDigzeUAKK5NOirLmH-123" value="" style="whiteSpace=wrap;html=1;aspect=fixed;fillColor=#fff2cc;strokeColor=#d6b656;direction=east;flipH=1;flipV=1;rotation=-90;" vertex="1" parent="JDQDigzeUAKK5NOirLmH-163">
          <mxGeometry width="40" height="40" as="geometry" />
        </mxCell>
        <mxCell id="JDQDigzeUAKK5NOirLmH-124" value="" style="whiteSpace=wrap;html=1;aspect=fixed;fillColor=#fff2cc;strokeColor=#d6b656;direction=east;flipH=1;flipV=1;rotation=-90;" vertex="1" parent="JDQDigzeUAKK5NOirLmH-163">
          <mxGeometry x="40" width="40" height="40" as="geometry" />
        </mxCell>
        <mxCell id="JDQDigzeUAKK5NOirLmH-125" value="" style="whiteSpace=wrap;html=1;aspect=fixed;fillColor=#fff2cc;strokeColor=#d6b656;direction=east;flipH=1;flipV=1;rotation=-90;" vertex="1" parent="JDQDigzeUAKK5NOirLmH-163">
          <mxGeometry x="80" width="40" height="40" as="geometry" />
        </mxCell>
        <mxCell id="JDQDigzeUAKK5NOirLmH-137" value="" style="whiteSpace=wrap;html=1;aspect=fixed;fillColor=#fff2cc;strokeColor=#d6b656;direction=east;flipH=1;flipV=1;rotation=-90;opacity=60;" vertex="1" parent="1">
          <mxGeometry x="180.0000000000001" y="260" width="40" height="40" as="geometry" />
        </mxCell>
        <mxCell id="JDQDigzeUAKK5NOirLmH-138" value="" style="whiteSpace=wrap;html=1;aspect=fixed;fillColor=#fff2cc;strokeColor=#d6b656;direction=east;flipH=1;flipV=1;rotation=-90;opacity=60;" vertex="1" parent="1">
          <mxGeometry x="220.0000000000001" y="260" width="40" height="40" as="geometry" />
        </mxCell>
        <mxCell id="JDQDigzeUAKK5NOirLmH-139" value="" style="whiteSpace=wrap;html=1;aspect=fixed;fillColor=#fff2cc;strokeColor=#d6b656;direction=east;flipH=1;flipV=1;rotation=-90;opacity=60;" vertex="1" parent="1">
          <mxGeometry x="260.0000000000001" y="260" width="40" height="40" as="geometry" />
        </mxCell>
        <mxCell id="JDQDigzeUAKK5NOirLmH-140" value="" style="whiteSpace=wrap;html=1;aspect=fixed;fillColor=#fff2cc;strokeColor=#d6b656;direction=east;flipH=1;flipV=1;rotation=-90;opacity=60;" vertex="1" parent="1">
          <mxGeometry x="300.0000000000001" y="260" width="40" height="40" as="geometry" />
        </mxCell>
        <mxCell id="JDQDigzeUAKK5NOirLmH-141" value="" style="whiteSpace=wrap;html=1;aspect=fixed;fillColor=#fff2cc;strokeColor=#d6b656;direction=east;flipH=1;flipV=1;rotation=-90;opacity=60;" vertex="1" parent="1">
          <mxGeometry x="340.0000000000001" y="260" width="40" height="40" as="geometry" />
        </mxCell>
        <mxCell id="JDQDigzeUAKK5NOirLmH-142" value="" style="whiteSpace=wrap;html=1;aspect=fixed;fillColor=#fff2cc;strokeColor=#d6b656;direction=east;flipH=1;flipV=1;rotation=-90;opacity=60;" vertex="1" parent="1">
          <mxGeometry x="380.0000000000001" y="260" width="40" height="40" as="geometry" />
        </mxCell>
        <mxCell id="JDQDigzeUAKK5NOirLmH-8" value="" style="whiteSpace=wrap;html=1;aspect=fixed;fillColor=#fff2cc;strokeColor=#d6b656;direction=east;flipH=1;flipV=1;rotation=-90;" vertex="1" parent="1">
          <mxGeometry x="160.0000000000001" y="280" width="40" height="40" as="geometry" />
        </mxCell>
        <mxCell id="JDQDigzeUAKK5NOirLmH-9" value="" style="whiteSpace=wrap;html=1;aspect=fixed;fillColor=#fff2cc;strokeColor=#d6b656;direction=east;flipH=1;flipV=1;rotation=-90;" vertex="1" parent="1">
          <mxGeometry x="200.0000000000001" y="280" width="40" height="40" as="geometry" />
        </mxCell>
        <mxCell id="JDQDigzeUAKK5NOirLmH-10" value="" style="whiteSpace=wrap;html=1;aspect=fixed;fillColor=#fff2cc;strokeColor=#d6b656;direction=east;flipH=1;flipV=1;rotation=-90;" vertex="1" parent="1">
          <mxGeometry x="240.0000000000001" y="280" width="40" height="40" as="geometry" />
        </mxCell>
        <mxCell id="JDQDigzeUAKK5NOirLmH-11" value="" style="whiteSpace=wrap;html=1;aspect=fixed;fillColor=#fff2cc;strokeColor=#d6b656;direction=east;flipH=1;flipV=1;rotation=-90;" vertex="1" parent="1">
          <mxGeometry x="280.0000000000001" y="280" width="40" height="40" as="geometry" />
        </mxCell>
        <mxCell id="JDQDigzeUAKK5NOirLmH-12" value="" style="whiteSpace=wrap;html=1;aspect=fixed;fillColor=#fff2cc;strokeColor=#d6b656;direction=east;flipH=1;flipV=1;rotation=-90;" vertex="1" parent="1">
          <mxGeometry x="320.0000000000001" y="280" width="40" height="40" as="geometry" />
        </mxCell>
        <mxCell id="JDQDigzeUAKK5NOirLmH-13" value="" style="whiteSpace=wrap;html=1;aspect=fixed;fillColor=#fff2cc;strokeColor=#d6b656;direction=east;flipH=1;flipV=1;rotation=-90;" vertex="1" parent="1">
          <mxGeometry x="360.0000000000001" y="280" width="40" height="40" as="geometry" />
        </mxCell>
        <mxCell id="JDQDigzeUAKK5NOirLmH-171" value="" style="verticalLabelPosition=bottom;verticalAlign=top;html=1;shape=mxgraph.flowchart.or;" vertex="1" parent="1">
          <mxGeometry x="240" y="660" width="20" height="20" as="geometry" />
        </mxCell>
        <mxCell id="JDQDigzeUAKK5NOirLmH-174" value="" style="shape=flexArrow;endArrow=classic;startArrow=classic;html=1;rounded=0;fillColor=#CCCCCC;" edge="1" parent="1">
          <mxGeometry width="100" height="100" relative="1" as="geometry">
            <mxPoint x="440" y="680" as="sourcePoint" />
            <mxPoint x="520" y="680" as="targetPoint" />
          </mxGeometry>
        </mxCell>
        <mxCell id="JDQDigzeUAKK5NOirLmH-175" value="Equal" style="edgeLabel;html=1;align=center;verticalAlign=middle;resizable=0;points=[];" vertex="1" connectable="0" parent="JDQDigzeUAKK5NOirLmH-174">
          <mxGeometry y="2" relative="1" as="geometry">
            <mxPoint y="22" as="offset" />
          </mxGeometry>
        </mxCell>
        <mxCell id="JDQDigzeUAKK5NOirLmH-177" value="" style="group;fillColor=#D7F0D5;strokeColor=#82b366;" vertex="1" connectable="0" parent="1">
          <mxGeometry x="540.0000000000001" y="600" width="360" height="40" as="geometry" />
        </mxCell>
        <mxCell id="JDQDigzeUAKK5NOirLmH-178" value="" style="whiteSpace=wrap;html=1;aspect=fixed;fillColor=#D7F0D5;strokeColor=#82b366;direction=east;flipH=1;flipV=1;rotation=-90;container=0;" vertex="1" parent="JDQDigzeUAKK5NOirLmH-177">
          <mxGeometry width="40" height="40" as="geometry" />
        </mxCell>
        <mxCell id="JDQDigzeUAKK5NOirLmH-179" value="" style="whiteSpace=wrap;html=1;aspect=fixed;fillColor=#D7F0D5;strokeColor=#82b366;direction=east;flipH=1;flipV=1;rotation=-90;container=0;" vertex="1" parent="JDQDigzeUAKK5NOirLmH-177">
          <mxGeometry x="40" width="40" height="40" as="geometry" />
        </mxCell>
        <mxCell id="JDQDigzeUAKK5NOirLmH-180" value="" style="whiteSpace=wrap;html=1;aspect=fixed;fillColor=#D7F0D5;strokeColor=#82b366;direction=east;flipH=1;flipV=1;rotation=-90;container=0;" vertex="1" parent="JDQDigzeUAKK5NOirLmH-177">
          <mxGeometry x="80" width="40" height="40" as="geometry" />
        </mxCell>
        <mxCell id="JDQDigzeUAKK5NOirLmH-181" value="" style="whiteSpace=wrap;html=1;aspect=fixed;fillColor=#D7F0D5;strokeColor=#82b366;direction=east;flipH=1;flipV=1;rotation=-90;container=0;" vertex="1" parent="JDQDigzeUAKK5NOirLmH-177">
          <mxGeometry x="120" width="40" height="40" as="geometry" />
        </mxCell>
        <mxCell id="JDQDigzeUAKK5NOirLmH-182" value="" style="whiteSpace=wrap;html=1;aspect=fixed;fillColor=#D7F0D5;strokeColor=#82b366;direction=east;flipH=1;flipV=1;rotation=-90;container=0;" vertex="1" parent="JDQDigzeUAKK5NOirLmH-177">
          <mxGeometry x="160" width="40" height="40" as="geometry" />
        </mxCell>
        <mxCell id="JDQDigzeUAKK5NOirLmH-183" value="" style="whiteSpace=wrap;html=1;aspect=fixed;fillColor=#D7F0D5;strokeColor=#82b366;direction=east;flipH=1;flipV=1;rotation=-90;container=0;" vertex="1" parent="JDQDigzeUAKK5NOirLmH-177">
          <mxGeometry x="200" width="40" height="40" as="geometry" />
        </mxCell>
        <mxCell id="JDQDigzeUAKK5NOirLmH-184" value="" style="whiteSpace=wrap;html=1;aspect=fixed;fillColor=#D7F0D5;strokeColor=#82b366;direction=east;flipH=1;flipV=1;rotation=-90;container=0;" vertex="1" parent="JDQDigzeUAKK5NOirLmH-177">
          <mxGeometry x="240" width="40" height="40" as="geometry" />
        </mxCell>
        <mxCell id="JDQDigzeUAKK5NOirLmH-185" value="" style="whiteSpace=wrap;html=1;aspect=fixed;fillColor=#D7F0D5;strokeColor=#82b366;direction=east;flipH=1;flipV=1;rotation=-90;container=0;" vertex="1" parent="JDQDigzeUAKK5NOirLmH-177">
          <mxGeometry x="280" width="40" height="40" as="geometry" />
        </mxCell>
        <mxCell id="JDQDigzeUAKK5NOirLmH-186" value="" style="whiteSpace=wrap;html=1;aspect=fixed;fillColor=#D7F0D5;strokeColor=#82b366;direction=east;flipH=1;flipV=1;rotation=-90;container=0;" vertex="1" parent="JDQDigzeUAKK5NOirLmH-177">
          <mxGeometry x="320" width="40" height="40" as="geometry" />
        </mxCell>
        <mxCell id="JDQDigzeUAKK5NOirLmH-187" value="" style="group;fillColor=#D7F0D5;strokeColor=#82b366;" vertex="1" connectable="0" parent="1">
          <mxGeometry x="540.0000000000001" y="640" width="360" height="40" as="geometry" />
        </mxCell>
        <mxCell id="JDQDigzeUAKK5NOirLmH-188" value="" style="whiteSpace=wrap;html=1;aspect=fixed;fillColor=#D7F0D5;strokeColor=#82b366;direction=east;flipH=1;flipV=1;rotation=-90;container=0;" vertex="1" parent="JDQDigzeUAKK5NOirLmH-187">
          <mxGeometry width="40" height="40" as="geometry" />
        </mxCell>
        <mxCell id="JDQDigzeUAKK5NOirLmH-189" value="" style="whiteSpace=wrap;html=1;aspect=fixed;fillColor=#D7F0D5;strokeColor=#82b366;direction=east;flipH=1;flipV=1;rotation=-90;container=0;" vertex="1" parent="JDQDigzeUAKK5NOirLmH-187">
          <mxGeometry x="40" width="40" height="40" as="geometry" />
        </mxCell>
        <mxCell id="JDQDigzeUAKK5NOirLmH-190" value="" style="whiteSpace=wrap;html=1;aspect=fixed;fillColor=#D7F0D5;strokeColor=#82b366;direction=east;flipH=1;flipV=1;rotation=-90;container=0;" vertex="1" parent="JDQDigzeUAKK5NOirLmH-187">
          <mxGeometry x="80" width="40" height="40" as="geometry" />
        </mxCell>
        <mxCell id="JDQDigzeUAKK5NOirLmH-191" value="" style="whiteSpace=wrap;html=1;aspect=fixed;fillColor=#D7F0D5;strokeColor=#82b366;direction=east;flipH=1;flipV=1;rotation=-90;container=0;" vertex="1" parent="JDQDigzeUAKK5NOirLmH-187">
          <mxGeometry x="120" width="40" height="40" as="geometry" />
        </mxCell>
        <mxCell id="JDQDigzeUAKK5NOirLmH-192" value="" style="whiteSpace=wrap;html=1;aspect=fixed;fillColor=#D7F0D5;strokeColor=#82b366;direction=east;flipH=1;flipV=1;rotation=-90;container=0;" vertex="1" parent="JDQDigzeUAKK5NOirLmH-187">
          <mxGeometry x="160" width="40" height="40" as="geometry" />
        </mxCell>
        <mxCell id="JDQDigzeUAKK5NOirLmH-193" value="" style="whiteSpace=wrap;html=1;aspect=fixed;fillColor=#D7F0D5;strokeColor=#82b366;direction=east;flipH=1;flipV=1;rotation=-90;container=0;" vertex="1" parent="JDQDigzeUAKK5NOirLmH-187">
          <mxGeometry x="200" width="40" height="40" as="geometry" />
        </mxCell>
        <mxCell id="JDQDigzeUAKK5NOirLmH-194" value="" style="whiteSpace=wrap;html=1;aspect=fixed;fillColor=#D7F0D5;strokeColor=#82b366;direction=east;flipH=1;flipV=1;rotation=-90;container=0;" vertex="1" parent="JDQDigzeUAKK5NOirLmH-187">
          <mxGeometry x="240" width="40" height="40" as="geometry" />
        </mxCell>
        <mxCell id="JDQDigzeUAKK5NOirLmH-195" value="" style="whiteSpace=wrap;html=1;aspect=fixed;fillColor=#D7F0D5;strokeColor=#82b366;direction=east;flipH=1;flipV=1;rotation=-90;container=0;" vertex="1" parent="JDQDigzeUAKK5NOirLmH-187">
          <mxGeometry x="280" width="40" height="40" as="geometry" />
        </mxCell>
        <mxCell id="JDQDigzeUAKK5NOirLmH-196" value="" style="whiteSpace=wrap;html=1;aspect=fixed;fillColor=#D7F0D5;strokeColor=#82b366;direction=east;flipH=1;flipV=1;rotation=-90;container=0;" vertex="1" parent="JDQDigzeUAKK5NOirLmH-187">
          <mxGeometry x="320" width="40" height="40" as="geometry" />
        </mxCell>
        <mxCell id="JDQDigzeUAKK5NOirLmH-197" value="" style="group;fillColor=#D7F0D5;strokeColor=#82b366;" vertex="1" connectable="0" parent="1">
          <mxGeometry x="540.0000000000001" y="680" width="360" height="40" as="geometry" />
        </mxCell>
        <mxCell id="JDQDigzeUAKK5NOirLmH-198" value="" style="whiteSpace=wrap;html=1;aspect=fixed;fillColor=#D7F0D5;strokeColor=#82b366;direction=east;flipH=1;flipV=1;rotation=-90;container=0;" vertex="1" parent="JDQDigzeUAKK5NOirLmH-197">
          <mxGeometry width="40" height="40" as="geometry" />
        </mxCell>
        <mxCell id="JDQDigzeUAKK5NOirLmH-199" value="" style="whiteSpace=wrap;html=1;aspect=fixed;fillColor=#D7F0D5;strokeColor=#82b366;direction=east;flipH=1;flipV=1;rotation=-90;container=0;" vertex="1" parent="JDQDigzeUAKK5NOirLmH-197">
          <mxGeometry x="40" width="40" height="40" as="geometry" />
        </mxCell>
        <mxCell id="JDQDigzeUAKK5NOirLmH-200" value="" style="whiteSpace=wrap;html=1;aspect=fixed;fillColor=#D7F0D5;strokeColor=#82b366;direction=east;flipH=1;flipV=1;rotation=-90;container=0;" vertex="1" parent="JDQDigzeUAKK5NOirLmH-197">
          <mxGeometry x="80" width="40" height="40" as="geometry" />
        </mxCell>
        <mxCell id="JDQDigzeUAKK5NOirLmH-201" value="" style="whiteSpace=wrap;html=1;aspect=fixed;fillColor=#D7F0D5;strokeColor=#82b366;direction=east;flipH=1;flipV=1;rotation=-90;container=0;" vertex="1" parent="JDQDigzeUAKK5NOirLmH-197">
          <mxGeometry x="120" width="40" height="40" as="geometry" />
        </mxCell>
        <mxCell id="JDQDigzeUAKK5NOirLmH-202" value="" style="whiteSpace=wrap;html=1;aspect=fixed;fillColor=#D7F0D5;strokeColor=#82b366;direction=east;flipH=1;flipV=1;rotation=-90;container=0;" vertex="1" parent="JDQDigzeUAKK5NOirLmH-197">
          <mxGeometry x="160" width="40" height="40" as="geometry" />
        </mxCell>
        <mxCell id="JDQDigzeUAKK5NOirLmH-203" value="" style="whiteSpace=wrap;html=1;aspect=fixed;fillColor=#D7F0D5;strokeColor=#82b366;direction=east;flipH=1;flipV=1;rotation=-90;container=0;" vertex="1" parent="JDQDigzeUAKK5NOirLmH-197">
          <mxGeometry x="200" width="40" height="40" as="geometry" />
        </mxCell>
        <mxCell id="JDQDigzeUAKK5NOirLmH-204" value="" style="whiteSpace=wrap;html=1;aspect=fixed;fillColor=#D7F0D5;strokeColor=#82b366;direction=east;flipH=1;flipV=1;rotation=-90;container=0;" vertex="1" parent="JDQDigzeUAKK5NOirLmH-197">
          <mxGeometry x="240" width="40" height="40" as="geometry" />
        </mxCell>
        <mxCell id="JDQDigzeUAKK5NOirLmH-205" value="" style="whiteSpace=wrap;html=1;aspect=fixed;fillColor=#D7F0D5;strokeColor=#82b366;direction=east;flipH=1;flipV=1;rotation=-90;container=0;" vertex="1" parent="JDQDigzeUAKK5NOirLmH-197">
          <mxGeometry x="280" width="40" height="40" as="geometry" />
        </mxCell>
        <mxCell id="JDQDigzeUAKK5NOirLmH-206" value="" style="whiteSpace=wrap;html=1;aspect=fixed;fillColor=#D7F0D5;strokeColor=#82b366;direction=east;flipH=1;flipV=1;rotation=-90;container=0;" vertex="1" parent="JDQDigzeUAKK5NOirLmH-197">
          <mxGeometry x="320" width="40" height="40" as="geometry" />
        </mxCell>
        <mxCell id="JDQDigzeUAKK5NOirLmH-207" value="" style="group;fillColor=#D7F0D5;strokeColor=#82b366;" vertex="1" connectable="0" parent="1">
          <mxGeometry x="540.0000000000001" y="720" width="360" height="40" as="geometry" />
        </mxCell>
        <mxCell id="JDQDigzeUAKK5NOirLmH-208" value="" style="whiteSpace=wrap;html=1;aspect=fixed;fillColor=#D7F0D5;strokeColor=#82b366;direction=east;flipH=1;flipV=1;rotation=-90;container=0;" vertex="1" parent="JDQDigzeUAKK5NOirLmH-207">
          <mxGeometry width="40" height="40" as="geometry" />
        </mxCell>
        <mxCell id="JDQDigzeUAKK5NOirLmH-209" value="" style="whiteSpace=wrap;html=1;aspect=fixed;fillColor=#D7F0D5;strokeColor=#82b366;direction=east;flipH=1;flipV=1;rotation=-90;container=0;" vertex="1" parent="JDQDigzeUAKK5NOirLmH-207">
          <mxGeometry x="40" width="40" height="40" as="geometry" />
        </mxCell>
        <mxCell id="JDQDigzeUAKK5NOirLmH-210" value="" style="whiteSpace=wrap;html=1;aspect=fixed;fillColor=#D7F0D5;strokeColor=#82b366;direction=east;flipH=1;flipV=1;rotation=-90;container=0;" vertex="1" parent="JDQDigzeUAKK5NOirLmH-207">
          <mxGeometry x="80" width="40" height="40" as="geometry" />
        </mxCell>
        <mxCell id="JDQDigzeUAKK5NOirLmH-211" value="" style="whiteSpace=wrap;html=1;aspect=fixed;fillColor=#D7F0D5;strokeColor=#82b366;direction=east;flipH=1;flipV=1;rotation=-90;container=0;" vertex="1" parent="JDQDigzeUAKK5NOirLmH-207">
          <mxGeometry x="120" width="40" height="40" as="geometry" />
        </mxCell>
        <mxCell id="JDQDigzeUAKK5NOirLmH-212" value="" style="whiteSpace=wrap;html=1;aspect=fixed;fillColor=#D7F0D5;strokeColor=#82b366;direction=east;flipH=1;flipV=1;rotation=-90;container=0;" vertex="1" parent="JDQDigzeUAKK5NOirLmH-207">
          <mxGeometry x="160" width="40" height="40" as="geometry" />
        </mxCell>
        <mxCell id="JDQDigzeUAKK5NOirLmH-213" value="" style="whiteSpace=wrap;html=1;aspect=fixed;fillColor=#D7F0D5;strokeColor=#82b366;direction=east;flipH=1;flipV=1;rotation=-90;container=0;" vertex="1" parent="JDQDigzeUAKK5NOirLmH-207">
          <mxGeometry x="200" width="40" height="40" as="geometry" />
        </mxCell>
        <mxCell id="JDQDigzeUAKK5NOirLmH-214" value="" style="whiteSpace=wrap;html=1;aspect=fixed;fillColor=#D7F0D5;strokeColor=#82b366;direction=east;flipH=1;flipV=1;rotation=-90;container=0;" vertex="1" parent="JDQDigzeUAKK5NOirLmH-207">
          <mxGeometry x="240" width="40" height="40" as="geometry" />
        </mxCell>
        <mxCell id="JDQDigzeUAKK5NOirLmH-215" value="" style="whiteSpace=wrap;html=1;aspect=fixed;fillColor=#D7F0D5;strokeColor=#82b366;direction=east;flipH=1;flipV=1;rotation=-90;container=0;" vertex="1" parent="JDQDigzeUAKK5NOirLmH-207">
          <mxGeometry x="280" width="40" height="40" as="geometry" />
        </mxCell>
        <mxCell id="JDQDigzeUAKK5NOirLmH-216" value="" style="whiteSpace=wrap;html=1;aspect=fixed;fillColor=#D7F0D5;strokeColor=#82b366;direction=east;flipH=1;flipV=1;rotation=-90;container=0;" vertex="1" parent="JDQDigzeUAKK5NOirLmH-207">
          <mxGeometry x="320" width="40" height="40" as="geometry" />
        </mxCell>
        <mxCell id="JDQDigzeUAKK5NOirLmH-217" value="&lt;b&gt;W&lt;/b&gt;&lt;sub&gt;&lt;b&gt;i&lt;/b&gt;&lt;/sub&gt;&lt;b&gt;&amp;nbsp;&lt;/b&gt;&lt;sub&gt;4x9&lt;/sub&gt;" style="text;html=1;strokeColor=none;fillColor=none;align=center;verticalAlign=middle;whiteSpace=wrap;rounded=0;" vertex="1" parent="1">
          <mxGeometry x="700" y="770" width="60" height="30" as="geometry" />
        </mxCell>
        <mxCell id="JDQDigzeUAKK5NOirLmH-300" value="" style="shape=flexArrow;endArrow=classic;html=1;rounded=0;fillColor=#f9f7ed;strokeColor=#36393d;" edge="1" parent="1">
          <mxGeometry width="50" height="50" relative="1" as="geometry">
            <mxPoint x="800" y="560" as="sourcePoint" />
            <mxPoint x="800" y="220" as="targetPoint" />
          </mxGeometry>
        </mxCell>
        <mxCell id="JDQDigzeUAKK5NOirLmH-301" value="Train to mimic" style="edgeLabel;html=1;align=center;verticalAlign=middle;resizable=0;points=[];" vertex="1" connectable="0" parent="JDQDigzeUAKK5NOirLmH-300">
          <mxGeometry x="0.4759" y="1" relative="1" as="geometry">
            <mxPoint x="51" y="91" as="offset" />
          </mxGeometry>
        </mxCell>
      </root>
    </mxGraphModel>
  </diagram>
</mxfile>
